<svg xmlns="http://www.w3.org/2000/svg" viewBox="0 0 3840 243" xml:space="preserve"><path d="M3838.45 30.36c-2.26-4.01-4.93 14.31-8.12 12.89-3.19 9.79-6.89 11.18-11.21 8.68-4.33 2.37-9.28 9.27-14.97 3.72-3.38-5.42-7-2.64-9.95 3.29-4.94 5.71-9.83 5.09-14.72 9.01-4.89 4.61-9.77 12.31-14.67 9.09-4.9-.75-9.82 8.68-14.79 8.87-3.92 3.59-8.11 2.64-12.4 5.47-2.14.95-4.3 1.07-6.42.52C3724 90 3720 82 3714 83c-4.5 1-6.5 2.84-8 5.38-1.5 1.37-2.5 5.69-5 10.62-1 2.13-1-.41-2-4v6c-3.5-.93-5.25-1.6-6.75-6.62-1.5-3.86-2.75-9.17-5.25-4.38-2 2.76-3.25 4.79-4.62 6.88-1.38 1.66-2.88 2.07-5.38 6.12-3.25 7.23-6.48-2.57-9.7 1.45-3.21 2.88-6.4.28-9.57.58-3.16 5-6.3 3.25-9.4-.31-4.44 2.79-8.96 3.42-13.42-.55-2.23 1.17-4.44 1.42-6.62 1.11-2.18-.31-4.33-1.17-6.43-2.23-2.1-2.11-4.15-.63-6.13-2.11-1.98 3.15-3.9 11.22-5.73-3.96-1.25 7.74-2.94 3.59-4.92 8.55-1.98-.04-4.27.11-6.7-1.43-2.44-1.22-5.03-1.25-7.64-6.25-2.61-1.13-5.23 9.69-7.73 5.12 0-4.15-1 4.77-1 3-3.5-5.08-5.5-1.09-7.38-3.75-1.88-7.63-3.62-4.79-6.62-5.25-2-8.44-5 12.32-7 1-2.5-4.31-4.88 6.86-7.18-1.89-2.31-3.86-4.55-1.36-6.78-2.22-2.23-2.18-4.45-.91-6.72-3.22-2.27-.47-4.58-1.95-7 1.46-2.16-7.9-4.19-4.33-6.08 4.34-1.9.58-3.67 3.68-5.29 4.53-3.95-.3-2.95 8.56-3.95 6-5-2.63-7-3.22-8-6-2 5.8-5.5 6.22-9 10.62-3.5 4.47-7 9.47-9 11.38-2.33 2.28-6.33 11.7-11.19 11.19-4.85 6.92-10.56 5.99-16.3 4.3-5.74 4.49-11.52-8.37-16.52 4.52-3-8.06-4.25 9.27-5.38 7.07-1.13 7.4-2.13 4.71-4.63 7.47-1.55 2.08-3 1.65-4.71 8.13-1.7 5.92-3.66 5.95-6.21 1.92-2.55-3.15-5.7-7.67-9.8-4.63-2.34-7.63-4.61 8.81-6.83-3.07-2.22 6.63-4.4-2.31-6.57-3.75-2.17 10.22-4.32 1.6-6.5-1.95-2.18-4.69-4.38-3.82-6.64-5.52-2.26-2.77-4.57-.76-6.98-3.36-2.4-18.25-4.9-6.37-7.51-1.22-2.19.51-4.5-2.49-6.75-1.19-1.12-7.7-2.23-.53-3.29-4.75-1.06-17.57-2.08.87-3.04 4.93-1.86-.95-3.7 2.84-5.51 4.81-1.81.19-3.61-7.39-5.38-.18-1.77-1.76-3.53-.42-5.26 1.41-1.74 1.83-3.46 4.14-5.17 4.33-1.81 5.69-3.76-7.21-5.82 3.8-2.06-6.51-4.23-3.63-6.48 5.99-2.25-3.33-4.57 7.36-6.94 4.18-2.37-1.66-4.78-4.96-7.2 1.14-2.42-6.85-4.86 3.01-7.27-1.33-2.41 4.64-4.8-1.07-7.13-5.24-2-4.21-4-4.42-5 1-5.5 3.94-10.75-5.09-16.12-5.62-5.38 3.03-10.88-9.79-16.88-3.38-1 1.41-1 13.67-2 4-5-6.84-9.5 2.74-13.34-2.72-3.84 1.99-7.02-2.47-9.38-10.06-1.22-4.82-2.5-7.42-3.85-8.18-1.35-.77-2.75.3-4.22 2.81-2.94-9.62-6.12-3.22-9.54 1.04-2.04-.29-3.98.63-5.92 3.21-1.94 4.2-3.88-7.65-5.94 3.15-4.36 2.26-8.73 1.39-13.11 5.4-4.38 1.82-8.76 5.62-13.16 5.28-4.4 3.27-8.8-.77-13.22 5.11-2.8-2.36-5.79-4.76-8.74 2.4-2.94-1.22-5.84 3.33-8.45 2.84-4.61 5.7-9.73-5.36-14.46 3.65-2.36.77-4.63.93-6.68.31s-3.9-2.01-5.42-4.35c-.57-2.86-3.57.14-5.57-.86-5-5-11-8-18-7-1 1-3-3-5-3-7 2-12-1-17-5-1 0-4 2-5 2-4-2-8-9-12-8-5 2-7 10-11 15-2-3-6-8-8-5-4 3-6 7-10.85 9.51-2.27 2.3-4.54 4.8-6.87 5.15-4.66-1.71-9.53 4.62-14.65 3.72-5.12-3.13-10.47.22-16.08-2.27-4.62-5.59-8.88-3.07-12.83-1.89-3.95-.93-7.59 4.17-10.97 3.56-3.37 6.57-6.47 5.25-9.34 9.52-1.47 4.52-4.15 5.38-7.02 5.98-2.87 2.97-5.92 5.23-8.11 2.01-6.02-1.64-11.81-.06-17.6-6.02-5.79-2.64-11.57-7.45-17.58-6.16-4.46-5.36-9.68 3.97-14.62-2.33-4.94.59-9.62 2.76-12.99 2.35-5.32 8.28-10.75 4.89-16.28 8.58-5.53.34-11.16 5.55-16.87 6.58-5.71 3.92-11.51 3.19-17.37 5.39-5.8-.88-11.32 1.38-16.47 1.56-5.15-4.38-9.92.66-14.22-5.3-4.31 2.59-8.14-7.73-11.42-12.13-3.86-2.99-8.42-11.89-13.15-12.61-4.73-4.85-9.62-2.69-14.15.23-4.27-1.06-8.59 8.74-13.05 5.11-4.46 1.81-9.06-1.49-13.9 1.07-2.94 1.3-6.14-3.36-8.88.69-5.43-2.37-10.84 17.1-16.31 4.61-5.46 9.74-10.97-11.11-16.58 2.48-5.61-.64-11.32 9.53-17.18-.31-5.77-4.34-11.55-9.58-17.35-1.45-5.8-2.14-11.6 9.83-17.41-.87-2.9-.65-5.81-1.65-8.71-2.08-2.91-.43-5.81-.29-8.71 1.35-2.9-.93-5.81-6.87-8.71-.76-2.9-.3-5.8-1.4-8.7-.26-3.42-2.35-6.84-.56-10.26-1.77-3.42 4.97-6.83 4.7-10.23.17-3.41 8.35-6.8 0-10.19-.7-3.39 10.35-6.77-3.54-10.14.97-3.37 2-6.72-3.69-10.06 1.71-3.34 2.08-6.67.36-9.97 3.37-1.45-5.92-2.9 9.54-4.37 6.62-1.46 4.53-2.94-4.07-4.44-3.17-2.91 1.09-5.83.91-8.75.72s-5.83-.39-8.75.66c-5.84 3.75-11.67-6.72-17.51 1.21-5.84-2.34-11.68 3.58-17.53 1.12-1.99-3.87-4.03 1.71-6.07-1.01-3.3-1.84-6.63 1.08-9.95-.73-3.31-3.42-6.61-7.84-9.85.14-4.74 14.41-9.41-2.33-14.03 1.79-4.62 1.29-9.21 1.73-13.8-3.54-2.68 4.39-7.34 8.81-10.17-1.49-4.91 16.95-9.95 12.64-14.9 5.6-4.94 17.14-9.78-1.15-14.29 6.76-4.51.14-8.68 3.81-12.28 10-4.22.49-8.96 4.57-13.97 9.52-5.01 3.63-10.29 7.05-15.58 3.37-5.3-1.4-10.61.24-15.68 2.73-1.36-1.93-2.39-2.47-3.47-7.96-1.07 0-2.19-8.47-3.74-6.5-1.68-1.93-3.58-3.96-5.65-5.97s-4.32-4.01-6.69-5.88c-4.86-4.37-11.05-5.55-17.14-6.27-6.09-.72-12.09-4.35-16.59-3.47-5.67-2.74-10.89-11.43-16.08-12.46-5.19-4.48-10.36-12.72-15.91-13.19-5.55-4-11.48-12.86-18.22-10.67-1.73-5.18-3.17-4.2-4.55-4.92-1.12 1.96-2.94-9.75-4.84-5.04-1.91-8.16-3.91 2.25-5.41-.72-4.44 4.03-8.5 15.31-12.48 9.52-3.97 4.81-7.86 6.1-11.96 9.63-2.05 1.28-4.16 2.33-6.35 3-2.2.68-4.48.99-6.9.81-2.9.2-5.98 6.9-9.3-2.77-5.01-6.51-8.51-8.94-11.64-11.29-3.13.26-5.88-6.79-9.38-5.9-6.75 4.59-12.69 7.37-18.08 6.33-5.39-4.94-10.23-.16-14.8-2.95-4.56 2.34-8.84-5.66-13.11-9.14-4.27-6.53-8.52-8.84-13.02-12.23-2.62-8.5-5.11-2.63-7.61-1.07-2.5 1.37-5.02 3.91-7.72 6-1.8 1.39-3.67 2.58-5.67 3.08-2.5-6.94-5-.18-7.38.5-2.38-.13-4.63-4.42-6.63-2.5-5-4.58-10-9.96-15.11-11.63-5.11-8.67-10.33-5.15-15.78-8.74-2.72-1.14-5.5-3-8.35-1.34-2.85 1.11-5.76 5.08-8.76 1.71-2.22 6.97-4.39-6.22-6.51 1.83-2.13-11.47-4.21-4.15-6.28 3.36-2.07-5.58-4.12 2.58-6.18 4.75-2.05.05-4.11-3.73-6.18.11-2.08-9.4-4.17-12.98-6.31-3.65-2.14 4.82-4.32 10.71-6.56 4.61-2.69.79-5.47-3.46-8.37-2.78-4.3-7.97-9.45-2.91-14.28-3.45-4.83-2.4-9.33 5.78-12.33 4.22-3 1.03-7.22-5.35-12.07 11.07-4.85 9.09-10.33 6.11-15.85 8.19-5.52 2.07-11.07 3.41-16.07 3.74-11.67 0-18.47-11.11-25.94-20.18-1.49-1.81-3.01-3.54-4.61-5.09-1.45-.78-3.45-2.09-5.45-5.74 0 1.06 0 8.08-1 4-1 .74-3.75 3.93-5.88 3-2.12 7.04-3.62-.41-2.12 6-2-5.64-3-1.36-5-5-4 9.15-8.94 12.44-14.34 11.23-5.41 6.6-11.28 7.4-17.16 4.39-5.88 7.11-11.75-3.83-17.16-3.67-5.41.43-10.34-5.98-14.34-12.95-2-6.52-5-2.28-8-2 2-.54 0-5.51-2-3.98-3-2.08-5.25.74-7.25 2.36-2 1.62-3.75 3.62-5.75 4.62 0-2-1-6-3-5-2.75.5-5.47 1.01-8.16 1.59-4.41.46-8.83 2.83-13.25 4.5-4.42 11.81-8.85 3.45-13.29 3.84-4.43 2.15-8.87-.32-13.31 3.54-3.33 1.77-6.66-6.87-9.99 2.68-3.33-1.7-6.67 2.69-10 2.86-2.25-1.27-4.31 5.15-6.24 4.46-1.93 4.52-3.73 4.74-5.46 3.77-1.73 1.23-3.38-2.1-5.02-1.3-1.64 1.53-3.26 4.98-4.92 13.89-1.75-1.17-3.5 3.66-5.25 4.59-1.31 5.32-2.62 7-3.91 6.91-1.3-.09-2.58-1.95-3.85-3.69-2.54 3.43-5 3.84-7.34-2.63-4-3.6-8.89 2.23-14.22-8.67-5.33-4.07-11.11-1.81-16.89-4-5.78-10.62-11.56 5.81-16.89.67-1.5 5.32-2.75 4.5-3.86 6.77-1.66 4.71-3.01 6.83-4.41 10.35s-2.85 7.13-4.73 10.88c-1-1-2-3-2-4-.5 3-2.25 5-4.44 5.92-2.19.92-4.81.78-7.04-.49C1557 176 1547 191 1539 200c-2 2-5 0-6 2-4 11-16 10-21 19 0-1-1-1-1-2 0 3-3 5-4 8-4-4-13-12-18-4-1-2-2-4-5-4-1 0-3 1-3.73 1.53-2.73 1.38-5.32 2.87-7.82-1.58-5.01-.66-9.75-9.55-13.97-9.52-3.6-14.65-7.78-4.01-12.28-10-4.51-1.51-9.35 1.33-14.29-6.76-2.47-1.67-4.97-3.08-7.46-4.07-2.49-.99-4.98-1.55-7.44-1.53-2.83 1.27-7.49-1.38-10.17 1.49-2.3-5.06-4.59-4.41-6.89-.72-2.3 8.67-4.6-4.42-6.91 4.26-2.31-1.53-4.63-8.26-6.97.11-2.34 3.86-4.69 4.28-7.06-1.9-1.62 17.92-3.26 7.7-4.9 4.28-1.64.6-3.3-9.32-4.96-4.42-3.31 9.74-6.64-6.37-9.94.73-2.04-2.82-4.08 7.53-6.07 1.01-2.92-3.01-5.84-3.19-8.76-1.25-2.92 6.07-5.84-2.28-8.76.13-2.92 6.21-5.84 8.86-8.76-.4-2.92 1.69-5.84 2.37-8.76-.81-2.92.16-5.84-.83-8.75 1.78-2.92.12-5.83-1.26-8.75-3.16-3.01 3.94-5.9-4.06-8.81-3.45-6.62-6.06-13.3-10.18-20.04-5.08-6.74 5.49-13.52-1.93-20.33-.27-6.81 5.29-13.65-.96-20.49 1.6-5.79 2.61-11.6.5-17.4 1.02-5.81 2.63-11.62-1.61-17.43.73-5.81-5.6-11.61 2.64-17.41.87-5.8 3.94-11.58 3.2-17.35 1.45-5.86 1.46-11.57 3.81-17.18.31-5.61 3.55-11.11-3.32-16.58-2.48-5.46-.55-10.88-5.09-16.31-4.61-2.74.68-5.94-5.69-8.88-.69-4.83.3-9.44.26-13.9-1.07-4.46-3.57-8.78-.62-13.05-5.11-4.53-4.24-9.42-4.56-14.15-.23-4.73.5-9.29-1.26-13.15 12.61-3.28 8.33-7.12 10.98-11.42 12.13-4.31 4.89-9.08 3.06-14.22 5.3-5.15 2.94-10.67 2.01-16.47-1.56-5.86 4.2-11.66 3.66-17.37-5.39-5.71-16.28-11.34-10.67-16.87-6.58-5.53 7.77-10.96 7.4-16.28-8.58-3.38.17-8.05-6.04-12.99-2.35-4.94.44-10.16.43-14.62 2.33-6.01 5.59-11.8-3.63-17.58 6.16-5.79 5.66-11.58-4.99-17.6 6.02-2.19-5.96-5.24-9.98-8.11-2.01-2.87-.77-5.56-1.7-7.02-5.98-2.87-3.19-5.97-13.23-9.34-9.52-1.69-1.22-3.44-.25-5.26.1-1.83.35-3.72.07-5.7-3.66-1.98-6.84-4.03-3.52-6.17-2.15-2.14.96-4.36 3.7-6.67 4.04-2.8 1.63-5.55-5-8.23.95-2.68-4.17-5.3-3.48-7.85 1.32-2.56 10.14-5.06-.63-7.5.38-2.44 4.19-4.82-8.83-7.15-4.1-2.33 3.32-4.6-8.33-6.82-4.92-2.22-5.06-4.39 5.23-6.5-4.36-2.93-4.37-6.01-8.04-9.04-8-3.04 4.17-6.03-.1-8.81-8.21-3.24 1.4-6.82.93-10.39-5.76-3.57-.5-7.14 12.36-10.38 3.19-3.79 2.01-7.58 10.9-11.5 8.5-3.92 6.67-7.97 8.68-12.28 6.66-4.32 5.56-8.9 3.83-13.9 3.68-3.45-1.01-6.78 2.14-9.67 6.43-3.04 1.88-7.38 5.05-12.1 4.04-4.73-1.99-9.85-.62-14.46-3.65-2.61-2.23-5.51-1.96-8.45-2.84-2.95-.33-5.94-2.03-8.74-2.4-4.42-2.19-8.82-3.52-13.22-5.11-4.4-1.31-8.78-7.66-13.16-5.28-4.38-7.42-8.75-1.93-13.11-5.4-2.06-5.8-4 4.45-5.94-3.15-1.94-3.25-3.87-.14-5.92-3.21-3.41-.91-6.6 1.77-9.54-1.04-2.94-1.9-5.64 5.35-8.07 5.38-4.16 4.38-7.72 8.94-11.63 8.26-3.91.18-8.17 2.69-13.72-2.75-4.99-2.24-11.23-8.56-17.24-1.58-6.01 4.81-11.8.05-15.89 8.2-4.56 1.49-9.54 8.73-14.21 9.41-4.67 5.69-9.02 8.77-12.31-.77-3.13-3-6.16-12.39-9.22-6.39-3.05-.6-6.13-1.31-9.35-6.15-3.42-5.64-6.89-10.01-10.43-5.74-3.55 3.77-7.17-.95-10.89-4.63-1.91-3.27-4.09.32-6.33-.18-2.24 6.47-4.56-5.62-6.75 1.19-5.23-1.46-9.97 9.49-14.49 4.58-4.52-1.67-8.81 10.35-13.14 7.47-4.34-2.56-8.71 15.63-13.4 6.82-8.2-4.88-12.6-.55-16.01 2.71-3.41-6.58-5.81-9.3-10-13.85-2.48-4.25-5.1-11.43-7.97-13.93-2.87-11.39-5.99-9.21-9.46-12.85-3.96-4.02-8.23-8.92-12.75-13.01s-9.28-7.9-14.24-11.3c-2.08-1.42-5.02-1.81-8.17-1.74s-6.52.59-9.45.96c-1.95-1.52-3.81 1.13-5.74 2.11-1.93-4.28-3.92 10.74-6.12 3.33-1.43.14-3.42-4.07-4.73-4.48-3.3-5.38-7.08-4.53-11.4-8.78-4.32-3.9-9.2-3.87-14.7-.41-4.52-4.06-9.17-.18-13.84 1.32-4.67 9.18-9.35 5.81-13.92-.64-6.23-12.34-12.31-7.68-18.4-1.29-6.09 17.27-12.18 6.06-18.43 2.83-3.86 10.65-8.04 14.42-12.06.92-4.02-13.04-7.87-5.77-11.08-7.3-3.89-2.46-8.91-6.41-14.42-10.2-5.51-2.02-11.52-.85-17.39-3.78-3.33-7.55-8.38 1.61-10.68 5.13-3.25 1.34-6.73 5.14-10.37 5.92-3.64 1.89-7.46 1.38-11.38-2.27-4.8 5.58-9.08-6.45-13.11-.81-4.03-1.17-7.82 7.54-11.63 6.6-4.24-5.54-8.61 8.38-12.89 3.24-4.28-4.35-8.48-1.45-12.4-5.47-4.97-3.58-9.89-11.4-14.79-8.87-4.9 2.39-9.78 1.58-14.67-9.09-4.89.9-9.78 11.7-14.72-9.01-2.95 5.07-6.57 4.99-9.95-3.29-5.69-5.24-10.64-1.16-14.97-3.72-4.33 6.67-8.03-3.43-11.21-8.68-3.19 17.09-5.86 6.92-8.12-12.89C1.36 35.67.53 41.4 0 29.6V243h3840V29.6c-.53-6.17-1.36 3.04-1.55.76z" fill="#fff"/></svg>
